<?xml version="1.0" standalone="no"?>
<!DOCTYPE svg PUBLIC "-//W3C//DTD SVG 20010904//EN"
 "http://www.w3.org/TR/2001/REC-SVG-20010904/DTD/svg10.dtd">
<svg version="1.0" xmlns="http://www.w3.org/2000/svg"
 width="1024.000000pt" height="869.000000pt" viewBox="0 0 1024.000000 869.000000"
 preserveAspectRatio="xMidYMid meet">

<g transform="translate(0.000000,869.000000) scale(0.100000,-0.100000)"
fill="#fff" stroke="none">
<path d="M5010 5930 l0 -2750 348 0 347 0 41 48 c22 26 157 187 299 357 142
171 316 378 385 460 69 83 252 301 406 485 154 184 363 434 465 555 101 121
243 291 314 377 l130 157 603 0 602 1 0 200 0 200 -430 0 c-236 0 -430 2 -430
5 0 3 51 65 113 138 125 148 636 759 1185 1417 200 239 377 448 393 465 l29
30 0 -2448 0 -2447 200 0 200 0 0 2750 0 2750 -202 0 -203 -1 -660 -791 c-363
-436 -862 -1034 -1108 -1330 l-449 -538 -1089 0 -1089 0 0 1330 0 1330 -200 0
-200 0 0 -2750z m2230 -318 c0 -5 -152 -190 -337 -413 -1216 -1457 -1477
-1768 -1484 -1763 -10 6 -12 2167 -2 2177 9 10 1823 9 1823 -1z"/>
<path d="M6335 2370 c-193 -35 -361 -163 -450 -343 -60 -122 -78 -210 -72
-352 13 -301 189 -528 467 -602 88 -23 281 -23 370 1 82 21 210 84 275 133
l50 39 3 257 2 257 -265 0 -265 0 0 -65 0 -65 190 0 189 0 3 -157 c3 -178 5
-173 -83 -218 -282 -145 -592 -65 -724 187 -145 275 -43 624 221 754 73 36 84
39 183 42 154 6 265 -27 366 -108 l40 -32 48 54 47 53 -37 33 c-49 42 -161 97
-238 117 -74 19 -252 27 -320 15z"/>
<path d="M702 2353 c-6 -10 -78 -169 -162 -353 -83 -184 -210 -464 -281 -621
-71 -157 -129 -291 -129 -298 0 -8 20 -11 70 -9 l70 3 68 150 c38 83 71 158
75 168 6 16 30 17 358 15 l351 -3 64 -145 c94 -212 75 -190 161 -190 40 0 73
4 73 9 0 5 -99 227 -219 493 -120 265 -250 553 -288 638 l-70 155 -66 3 c-55
2 -67 0 -75 -15z m217 -488 c76 -170 136 -313 132 -318 -11 -11 -566 -4 -564
8 2 8 176 400 260 585 14 30 27 51 29 45 2 -5 67 -149 143 -320z"/>
<path d="M7959 2141 c-56 -124 -157 -347 -224 -496 -67 -148 -152 -336 -189
-417 -36 -81 -66 -149 -66 -152 0 -3 33 -6 73 -6 l72 0 75 170 75 170 351 0
350 0 69 -157 c38 -87 73 -164 78 -170 10 -14 143 -19 150 -5 3 4 -45 115
-105 247 -60 132 -188 416 -285 630 -96 215 -180 396 -186 403 -7 9 -31 12
-73 11 l-63 -2 -102 -226z m315 -274 c75 -169 136 -312 136 -317 0 -6 -104
-10 -285 -10 -157 0 -285 3 -285 8 0 18 285 641 291 634 4 -4 68 -145 143
-315z"/>
<path d="M9540 2347 c-119 -40 -214 -132 -241 -231 -6 -23 -9 -77 -7 -121 10
-183 107 -264 408 -340 181 -46 237 -67 288 -111 116 -99 63 -284 -97 -339
-59 -20 -206 -20 -285 1 -72 19 -150 59 -224 115 -30 22 -57 39 -62 37 -14 -5
-81 -90 -78 -99 6 -17 124 -99 185 -129 96 -47 200 -70 322 -70 162 0 266 36
349 119 55 56 78 101 93 184 10 56 10 76 -4 133 -37 146 -150 228 -396 285
-200 47 -303 95 -335 158 -42 80 -28 170 36 232 57 55 123 73 247 66 110 -5
177 -27 271 -88 34 -21 65 -37 70 -34 4 3 24 27 43 54 l35 49 -41 30 c-65 46
-161 91 -229 107 -99 23 -269 19 -348 -8z"/>
<path d="M1965 2348 c-3 -7 -4 -296 -3 -643 l3 -630 73 -3 72 -3 0 251 0 250
183 0 182 0 188 -250 187 -250 85 0 c47 0 85 2 85 5 0 3 -86 120 -191 260
-106 141 -190 257 -188 259 2 2 33 13 69 25 162 53 251 159 266 317 18 194
-91 343 -293 401 -80 22 -710 33 -718 11z m688 -148 c80 -25 146 -84 165 -146
49 -164 -43 -304 -226 -343 -30 -6 -147 -11 -267 -11 l-215 0 0 260 0 260 239
0 c211 0 246 -2 304 -20z"/>
<path d="M3480 2290 l0 -70 215 0 215 0 2 -572 3 -573 73 -3 72 -3 0 576 0
575 215 0 215 0 0 70 0 70 -505 0 -505 0 0 -70z"/>
<path d="M5060 1715 l0 -645 70 0 70 0 0 645 0 645 -70 0 -70 0 0 -645z"/>
<path d="M2290 525 c-217 -68 -230 -394 -20 -483 54 -23 146 -19 208 8 l53 23
29 -28 c25 -23 32 -26 45 -15 21 17 19 30 -10 60 l-25 26 22 44 c30 61 36 157
13 217 -26 66 -91 128 -156 147 -63 19 -99 19 -159 1z m178 -69 c76 -39 116
-170 79 -259 -14 -33 -40 -49 -49 -29 -2 4 -18 20 -35 36 -32 29 -33 29 -54
10 l-21 -19 49 -42 48 -42 -37 -15 c-151 -63 -300 66 -267 231 26 131 164 193
287 129z"/>
<path d="M7002 526 c-163 -53 -225 -262 -121 -406 65 -90 209 -121 315 -67 66
34 83 53 62 73 -14 14 -21 13 -70 -15 -65 -37 -131 -41 -195 -12 -122 56 -140
261 -29 346 67 51 184 48 242 -6 l24 -23 22 22 c22 21 22 22 3 37 -71 56 -175
76 -253 51z"/>
<path d="M8929 527 c-61 -23 -105 -55 -132 -96 -103 -155 -23 -362 153 -400
161 -35 303 82 303 249 0 37 -6 80 -15 101 -22 49 -74 107 -119 130 -51 25
-143 33 -190 16z m148 -58 c17 -6 47 -27 66 -49 77 -84 70 -222 -15 -294 -46
-39 -87 -51 -154 -43 -62 7 -110 42 -141 105 -33 68 -29 147 11 210 49 78 129
102 233 71z"/>
<path d="M9947 526 c-74 -27 -114 -90 -100 -157 11 -57 57 -86 196 -124 99
-27 125 -79 68 -136 -42 -42 -116 -41 -197 1 -51 27 -59 29 -72 16 -21 -21 -2
-42 63 -72 58 -28 156 -32 209 -10 70 29 102 107 70 173 -22 45 -72 75 -152
93 -103 23 -142 57 -128 114 15 61 114 78 201 35 46 -23 47 -23 61 -4 13 18
13 21 -3 33 -55 43 -156 60 -216 38z"/>
<path d="M167 293 c-59 -131 -107 -244 -107 -250 0 -7 11 -13 24 -13 20 0 29
11 52 65 l28 65 116 1 c63 0 123 2 133 4 14 3 26 -13 50 -63 27 -56 37 -68 60
-70 15 -2 27 1 27 6 0 5 -49 117 -108 248 -104 228 -110 239 -138 242 -29 3
-30 1 -137 -235z m200 27 c23 -52 40 -97 37 -99 -3 -3 -50 -6 -104 -6 -72 -1
-100 2 -100 10 0 11 83 205 98 229 3 6 10 -1 16 -15 6 -13 30 -67 53 -119z"/>
<path d="M1140 280 l0 -251 28 3 27 3 3 92 3 93 69 0 70 0 71 -95 c61 -81 76
-95 100 -95 16 0 29 4 29 8 0 5 -29 48 -65 95 -36 48 -65 90 -65 95 0 4 18 16
41 26 50 22 79 67 79 124 0 56 -21 95 -67 124 -34 21 -52 23 -180 26 l-143 4
0 -252z m242 194 c55 -10 88 -44 88 -93 0 -81 -59 -110 -207 -103 l-63 3 0 99
0 100 73 0 c39 0 89 -3 109 -6z"/>
<path d="M3220 361 c0 -172 6 -212 42 -264 62 -89 245 -94 321 -9 38 42 46 90
47 270 l0 172 -24 0 -24 0 -4 -172 c-4 -183 -10 -209 -58 -253 -32 -29 -135
-33 -178 -5 -54 33 -62 67 -62 260 l0 170 -30 0 -30 0 0 -169z"/>
<path d="M4260 280 l0 -250 25 0 25 0 0 250 0 250 -25 0 -25 0 0 -250z"/>
<path d="M4910 505 c0 -25 1 -25 80 -25 l80 0 2 -222 3 -223 28 -3 27 -3 0
225 0 226 85 0 c84 0 85 0 85 25 l0 25 -195 0 -195 0 0 -25z"/>
<path d="M5890 280 l0 -250 180 0 180 0 0 25 0 25 -150 0 -150 0 0 90 0 90
136 0 c135 0 135 0 132 23 -3 21 -7 22 -135 25 l-133 3 0 84 0 85 150 0 150 0
0 25 0 25 -180 0 -180 0 0 -250z"/>
<path d="M7830 505 c0 -25 1 -25 80 -25 l80 0 2 -222 3 -223 28 -3 27 -3 0
225 0 226 80 0 c79 0 80 0 80 25 l0 25 -190 0 -190 0 0 -25z"/>
</g>
</svg>
